<svg xmlns="http://www.w3.org/2000/svg" width="688" height="648" fill="none" data-darkreader-inline-fill="" style="--darkreader-inline-fill:none;"><rect id="backgroundrect" width="100%" height="100%" x="0" y="0" fill="none" stroke="none" data-darkreader-inline-fill="" data-darkreader-inline-stroke="" style="--darkreader-inline-fill:none; --darkreader-inline-stroke:none;"/>

<defs>
<linearGradient id="paint0_linear" x1="0.5" y1="0" x2="0.5" y2="0.9999997615814209">
<stop stop-color="#121214" data-darkreader-inline-stopcolor="" style="--darkreader-inline-stopcolor:#0e0f10;"/>
<stop offset="1" stop-color="#121214" stop-opacity="0" data-darkreader-inline-stopcolor="" style="--darkreader-inline-stopcolor:#0e0f10;"/>
</linearGradient>
<clipPath id="clip0">
<rect y="-40" width="688" height="688" fill="white" id="svg_1" data-darkreader-inline-fill="" style="--darkreader-inline-fill:#181a1b;"/>
</clipPath>
</defs>
<g class="currentLayer" style=""><title>Layer 1</title><g opacity="0.54" id="svg_2" class="selected" fill="#000000" fill-opacity="1" data-darkreader-inline-fill="" style="--darkreader-inline-fill:#000000; --darkreader-inline-stroke:#bab4ab;" stroke="#b6b6b6" stroke-opacity="1" data-darkreader-inline-stroke="" stroke-width="1">
<g clip-path="url(#clip0)" id="svg_3" fill="#000000" fill-opacity="1" data-darkreader-inline-fill="" style="--darkreader-inline-fill:#000000; --darkreader-inline-stroke:#bab4ab;" stroke="#b6b6b6" stroke-opacity="1" data-darkreader-inline-stroke="" stroke-width="1" opacity="0.54">
<path d="M346.90407942962617,7.221038726716614 C168.45072291279277,7.221038726716614 23.911578946669827,150.95182909176566 23.911578946669827,328.2207882913851 C23.911578946669827,470.07355971146427 116.44893033503683,590.3657202474147 244.75770115189124,632.777592694798 C260.9073261760391,635.7992118902748 266.829168328789,625.8635734106167 266.829168328789,617.3428351827688 C266.829168328789,609.7204161751976 266.55969493449084,589.5224776812354 266.4254277031854,562.7637701673018 C176.57905453105144,582.1184660950847 157.63047414661378,519.6985746506263 157.63047414661378,519.6985746506263 C142.93431537463923,482.65002879534 121.69755846788487,472.7409790452461 121.69755846788487,472.7409790452461 C92.43978983474749,452.84216375888116 123.9585059712656,453.2504906771888 123.9585059712656,453.2504906771888 C156.39202325086663,455.48204476561443 173.4298776513425,486.3249710601089 173.4298776513425,486.3249710601089 C202.23066823219776,535.4058666406889 249.03735178329038,521.2226786131469 267.5014434170035,513.0295515174295 C270.4083759213502,492.259005740352 278.7254328087863,478.1308943669071 287.95794809148674,470.10014844102847 C216.2263839653342,462.0703521126342 140.83486412150003,434.46745243503676 140.83486412150003,311.4793846407712 C140.83486412150003,276.44493504997433 153.35082351521459,247.80697411434133 174.0758626523085,225.34899360742028 C170.4421970218752,217.23753189536453 159.54120013057542,184.59796716031636 176.9020470315343,140.39040586986397 C176.9020470315343,140.39040586986397 203.95266894698196,131.78800225835457 265.7249846643473,173.30155548546094 C291.56438470298383,166.16912877985902 319.01874724403507,162.6299789553646 346.47310978508636,162.46664818804155 C373.9274723261377,162.6299789553646 401.38183486718896,166.16912877985902 427.2212349058255,173.30155548546094 C488.58980999758717,131.78800225835457 515.6404319130347,140.39040586986397 515.6404319130347,140.39040586986397 C533.0012788139937,184.59796716031636 522.100281922694,217.23753189536453 518.8703569178642,225.34899360742028 C539.4611288236528,247.80697411434133 551.9770882173672,276.44493504997433 551.9770882173672,311.4793846407712 C551.9770882173672,434.7941139696829 476.47759122947633,461.93361007487533 404.6117598720186,469.8285635604796 C415.916497388922,479.4650788325402 426.4137536546182,499.14643629496936 426.4137536546182,529.2258862119769 C426.4137536546182,572.1818780179422 426.0100130290145,606.6997465772056 426.0100130290145,617.1253773588327 C426.0100130290145,625.5369118759704 431.66238178746613,635.5817540663388 448.2157474372176,632.3692657764902 C577.4399766493361,590.2299278071404 669.8965799125824,469.855152290044 669.8965799125824,328.2207882913851 C669.8965799125824,150.95182909176566 525.2766878213389,7.221038726716614 346.90407942962617,7.221038726716614 z" fill="#000000" id="svg_4" fill-opacity="1" data-darkreader-inline-fill="" style="--darkreader-inline-fill:#000000; --darkreader-inline-stroke:#bab4ab;" stroke="#b6b6b6" stroke-opacity="1" data-darkreader-inline-stroke="" stroke-width="1" opacity="0.54"/>
</g>
</g></g></svg>