<?xml version="1.0" encoding="UTF-8" standalone="no"?>
<!DOCTYPE svg PUBLIC "-//W3C//DTD SVG 1.1//EN" "http://www.w3.org/Graphics/SVG/1.1/DTD/svg11.dtd">
<svg version="1.1" xmlns="http://www.w3.org/2000/svg" xmlns:xlink="http://www.w3.org/1999/xlink" preserveAspectRatio="xMidYMid meet" viewBox="0 0 640 640" width="640" height="640"><defs><path d="M0 312.37C0 461.75 98.56 588.43 235.21 633.09C252.41 636.28 258.72 625.81 258.72 616.84C258.72 608.81 258.43 587.54 258.29 559.36C162.6 579.75 142.42 514.01 142.42 514.01C126.76 475 104.15 464.56 104.15 464.56C72.99 443.61 106.55 444.04 106.55 444.04C141.1 446.39 159.24 478.87 159.24 478.87C189.92 530.55 239.77 515.62 259.43 506.99C262.53 485.12 271.39 470.24 281.22 461.78C204.82 453.33 124.53 424.26 124.53 294.74C124.53 257.85 137.86 227.69 159.93 204.04C156.06 195.5 144.45 161.13 162.94 114.57C162.94 114.57 191.75 105.51 257.54 149.23C285.06 141.72 314.3 137.99 343.54 137.82C372.78 137.99 402.02 141.72 429.54 149.23C494.9 105.51 523.71 114.57 523.71 114.57C542.2 161.13 530.59 195.5 527.15 204.04C549.08 227.69 562.41 257.85 562.41 294.74C562.41 424.6 482 453.18 405.46 461.5C417.5 471.64 428.68 492.37 428.68 524.04C428.68 569.28 428.25 605.63 428.25 616.61C428.25 625.47 434.27 636.05 451.9 632.66C589.53 588.29 688 461.52 688 312.37C688 125.69 533.97 -25.67 344 -25.67C153.94 -25.67 0 125.69 0 312.37Z" id="a13raMizhi"></path><linearGradient id="gradientlFMi54PmH" gradientUnits="userSpaceOnUse" x1="344" y1="-25.67" x2="344" y2="633.68"><stop style="stop-color: #f2f2f2;stop-opacity: 0.5" offset="0%"></stop><stop style="stop-color: #121214;stop-opacity: 0" offset="100%"></stop></linearGradient></defs><g><g><g><g><filter id="shadow9537090" x="-9" y="-34.67" width="707" height="678.34" filterUnits="userSpaceOnUse" primitiveUnits="userSpaceOnUse"><feFlood></feFlood><feComposite in2="SourceAlpha" operator="in"></feComposite><feGaussianBlur stdDeviation="1"></feGaussianBlur><feOffset dx="1" dy="1" result="afterOffset"></feOffset><feFlood flood-color="#ffffff" flood-opacity="0.5"></feFlood><feComposite in2="afterOffset" operator="in"></feComposite><feMorphology operator="dilate" radius="1"></feMorphology><feComposite in2="SourceAlpha" operator="out"></feComposite></filter><path d="M0 312.37C0 461.75 98.56 588.43 235.21 633.09C252.41 636.28 258.72 625.81 258.72 616.84C258.72 608.81 258.43 587.54 258.29 559.36C162.6 579.75 142.42 514.01 142.42 514.01C126.76 475 104.15 464.56 104.15 464.56C72.99 443.61 106.55 444.04 106.55 444.04C141.1 446.39 159.24 478.87 159.24 478.87C189.92 530.55 239.77 515.62 259.43 506.99C262.53 485.12 271.39 470.24 281.22 461.78C204.82 453.33 124.53 424.26 124.53 294.74C124.53 257.85 137.86 227.69 159.93 204.04C156.06 195.5 144.45 161.13 162.94 114.57C162.94 114.57 191.75 105.51 257.54 149.23C285.06 141.72 314.3 137.99 343.54 137.82C372.78 137.99 402.02 141.72 429.54 149.23C494.9 105.51 523.71 114.57 523.71 114.57C542.2 161.13 530.59 195.5 527.15 204.04C549.08 227.69 562.41 257.85 562.41 294.74C562.41 424.6 482 453.18 405.46 461.5C417.5 471.64 428.68 492.37 428.68 524.04C428.68 569.28 428.25 605.63 428.25 616.61C428.25 625.47 434.27 636.05 451.9 632.66C589.53 588.29 688 461.52 688 312.37C688 125.69 533.97 -25.67 344 -25.67C153.94 -25.67 0 125.69 0 312.37Z" id="b6S45YIFAD" fill="white" fill-opacity="1" filter="url(#shadow9537090)"></path></g><use xlink:href="#a13raMizhi" opacity="1" fill="url(#gradientlFMi54PmH)"></use><g><use xlink:href="#a13raMizhi" opacity="1" fill-opacity="0" stroke="#fff6f6" stroke-width="1" stroke-opacity="0"></use></g><g><filter id="shadow315211" x="-9" y="-34.67" width="707" height="678.34" filterUnits="userSpaceOnUse" primitiveUnits="userSpaceOnUse"><feFlood></feFlood><feComposite in2="SourceAlpha" operator="out"></feComposite><feGaussianBlur stdDeviation="1"></feGaussianBlur><feOffset dx="1" dy="1" result="afterOffset"></feOffset><feFlood flood-color="#fffefe" flood-opacity="0.5"></feFlood><feComposite in2="afterOffset" operator="in"></feComposite><feMorphology operator="dilate" radius="1"></feMorphology><feComposite in2="SourceAlpha" operator="in"></feComposite></filter><path d="M0 312.37C0 461.75 98.56 588.43 235.21 633.09C252.41 636.28 258.72 625.81 258.72 616.84C258.72 608.81 258.43 587.54 258.29 559.36C162.6 579.75 142.42 514.01 142.42 514.01C126.76 475 104.15 464.56 104.15 464.56C72.99 443.61 106.55 444.04 106.55 444.04C141.1 446.39 159.24 478.87 159.24 478.87C189.92 530.55 239.77 515.62 259.43 506.99C262.53 485.12 271.39 470.24 281.22 461.78C204.82 453.33 124.53 424.26 124.53 294.74C124.53 257.85 137.86 227.69 159.93 204.04C156.06 195.5 144.45 161.13 162.94 114.57C162.94 114.57 191.75 105.51 257.54 149.23C285.06 141.72 314.3 137.99 343.54 137.82C372.78 137.99 402.02 141.72 429.54 149.23C494.9 105.51 523.71 114.57 523.71 114.57C542.2 161.13 530.59 195.5 527.15 204.04C549.08 227.69 562.41 257.85 562.41 294.74C562.41 424.6 482 453.18 405.46 461.5C417.5 471.64 428.68 492.37 428.68 524.04C428.68 569.28 428.25 605.63 428.25 616.61C428.25 625.47 434.27 636.05 451.9 632.66C589.53 588.29 688 461.52 688 312.37C688 125.69 533.97 -25.67 344 -25.67C153.94 -25.67 0 125.69 0 312.37Z" id="aDamjJ53" fill="white" fill-opacity="1" filter="url(#shadow315211)"></path></g></g></g></g></svg>